<svg width="25" height="25" viewBox="0 0 25 25" fill="none" xmlns="http://www.w3.org/2000/svg">
<path d="M15.5857 11.9286L12.9079 9.25078C13.2649 8.92349 14.1754 8.07254 14.9609 7.28704C15.7464 6.50155 16.389 6.48367 16.9246 6.92998L17.9957 7.91187C18.7098 8.62595 17.9957 9.63758 17.5494 10.0541L15.5857 11.9286Z" fill="white" stroke="white" stroke-width="0.267782" stroke-linecap="round"/>
<path d="M14.2468 13.2674L11.569 10.5896C8.26633 13.922 1.44681 20.801 0.589909 21.6579C-0.266994 22.5148 -0.00516238 23.2646 0.232866 23.5324C0.26262 23.5919 0.500649 23.8895 1.21473 24.6035C1.92882 25.3176 2.82143 24.7226 3.17847 24.3358L14.2468 13.2674Z" fill="white"/>
<path d="M11.9375 2.4668C11.9375 4.08968 10.4551 4.33935 10.299 4.33935C11.7035 4.33935 11.9375 6.21191 11.9375 6.21191C11.9375 6.21191 12.3276 4.33935 13.576 4.33935C12.4587 4.33935 11.9375 3.09098 11.9375 2.4668Z" fill="white" stroke="white" stroke-width="0.156046" stroke-linecap="round" stroke-linejoin="round"/>
<path d="M22.3615 1.0625C22.3615 2.68538 20.8791 2.93506 20.723 2.93506C22.1274 2.93506 22.3615 4.80761 22.3615 4.80761C22.3615 4.80761 22.7516 2.93506 24 2.93506C22.8827 2.93506 22.3615 1.68669 22.3615 1.0625Z" fill="white" stroke="white" stroke-width="0.156046" stroke-linecap="round" stroke-linejoin="round"/>
<path d="M20.4889 12.2979C20.4889 13.9207 19.0065 14.1704 18.8505 14.1704C20.2549 14.1704 20.4889 16.043 20.4889 16.043C20.4889 16.043 20.8791 14.1704 22.1274 14.1704C21.0102 14.1704 20.4889 12.922 20.4889 12.2979Z" fill="white" stroke="white" stroke-width="0.156046" stroke-linecap="round" stroke-linejoin="round"/>
</svg>
