<svg width="25" height="25" viewBox="0 0 25 25" fill="none" xmlns="http://www.w3.org/2000/svg">
<path d="M15.5858 11.9285L12.908 9.25072C13.265 8.92343 14.1755 8.07248 14.961 7.28698C15.7465 6.50149 16.3891 6.48361 16.9247 6.92992L17.9958 7.91181C18.7099 8.62589 17.9958 9.63752 17.5495 10.0541L15.5858 11.9285Z" fill="#FEB9D0" stroke="#FEB9D0" stroke-width="0.267782" stroke-linecap="round"/>
<path d="M14.2468 13.2673L11.569 10.5895C8.26633 13.9219 1.44681 20.8009 0.589909 21.6578C-0.266994 22.5147 -0.00516238 23.2645 0.232866 23.5323C0.26262 23.5918 0.500649 23.8894 1.21473 24.6034C1.92882 25.3175 2.82143 24.7225 3.17847 24.3357L14.2468 13.2673Z" fill="#FEB9D0"/>
<path d="M11.9376 2.4668C11.9376 4.08968 10.4551 4.33935 10.2991 4.33935C11.7035 4.33935 11.9376 6.21191 11.9376 6.21191C11.9376 6.21191 12.3277 4.33935 13.576 4.33935C12.4588 4.33935 11.9376 3.09098 11.9376 2.4668Z" fill="#FEB9D0" stroke="#FEB9D0" stroke-width="0.156046" stroke-linecap="round" stroke-linejoin="round"/>
<path d="M22.3616 1.06238C22.3616 2.68526 20.8792 2.93493 20.7231 2.93493C22.1276 2.93493 22.3616 4.80749 22.3616 4.80749C22.3616 4.80749 22.7517 2.93493 24.0001 2.93493C22.8828 2.93493 22.3616 1.68656 22.3616 1.06238Z" fill="#FEB9D0" stroke="#FEB9D0" stroke-width="0.156046" stroke-linecap="round" stroke-linejoin="round"/>
<path d="M20.4891 12.2977C20.4891 13.9206 19.0066 14.1703 18.8506 14.1703C20.255 14.1703 20.4891 16.0428 20.4891 16.0428C20.4891 16.0428 20.8792 14.1703 22.1276 14.1703C21.0103 14.1703 20.4891 12.9219 20.4891 12.2977Z" fill="#FEB9D0" stroke="#FEB9D0" stroke-width="0.156046" stroke-linecap="round" stroke-linejoin="round"/>
</svg>
