<svg width="24" height="24" viewBox="0 0 24 24" fill="none" xmlns="http://www.w3.org/2000/svg">
<mask id="path-1-inside-1_2131_2760" fill="white">
<path d="M15.9071 0.667969H7.48098C7.33798 0.667969 7.21485 0.768907 7.18681 0.909134L4.90681 12.3091C4.86968 12.4948 5.01167 12.668 5.20098 12.668H9.68819C9.89597 12.668 10.0408 12.8741 9.97046 13.0696L6.42122 22.9286C6.30595 23.2488 6.72852 23.4832 6.93914 23.2158L17.8924 9.31363C18.0474 9.11685 17.9073 8.82797 17.6567 8.82797H13.443C13.2295 8.82797 13.0843 8.6112 13.1656 8.41374L16.1845 1.08219C16.2658 0.884742 16.1206 0.667969 15.9071 0.667969Z"/>
</mask>
<path d="M16.1845 1.08219L17.5715 1.65332L17.5715 1.65332L16.1845 1.08219ZM13.1656 8.41374L11.7786 7.84262L11.7786 7.84262L13.1656 8.41374ZM17.8924 9.31363L16.7142 8.38532L16.7142 8.38532L17.8924 9.31363ZM6.93914 23.2158L8.11737 24.1442L8.11738 24.1442L6.93914 23.2158ZM6.42122 22.9286L7.83256 23.4366L7.83256 23.4366L6.42122 22.9286ZM9.97046 13.0696L11.3818 13.5777L11.3818 13.5777L9.97046 13.0696ZM4.90681 12.3091L6.37768 12.6033L6.37768 12.6033L4.90681 12.3091ZM7.18681 0.909134L8.65768 1.20331L8.65768 1.20331L7.18681 0.909134ZM7.48098 2.16797H15.9071V-0.832031H7.48098V2.16797ZM14.7975 0.511069L11.7786 7.84262L14.5526 8.98487L17.5715 1.65332L14.7975 0.511069ZM13.443 10.328H17.6567V7.32797H13.443V10.328ZM16.7142 8.38532L5.7609 22.2875L8.11738 24.1442L19.0706 10.2419L16.7142 8.38532ZM7.83256 23.4366L11.3818 13.5777L8.55913 12.5615L5.00989 22.4205L7.83256 23.4366ZM9.68819 11.168H5.20098V14.168H9.68819V11.168ZM6.37768 12.6033L8.65768 1.20331L5.71594 0.61496L3.43594 12.015L6.37768 12.6033ZM5.20098 11.168C5.95824 11.168 6.52619 11.8608 6.37768 12.6033L3.43594 12.015C3.21317 13.1288 4.06509 14.168 5.20098 14.168V11.168ZM11.3818 13.5777C11.8041 12.4047 10.9349 11.168 9.68819 11.168V14.168C8.85706 14.168 8.27761 13.3435 8.55913 12.5615L11.3818 13.5777ZM5.7609 22.2875C6.60335 21.2183 8.29366 22.1558 7.83256 23.4366L5.00989 22.4205C4.31824 24.3417 6.8537 25.748 8.11737 24.1442L5.7609 22.2875ZM17.6567 10.328C16.6547 10.328 16.094 9.17243 16.7142 8.38532L19.0706 10.2419C20.0009 9.06127 19.1598 7.32797 17.6567 7.32797V10.328ZM11.7786 7.84262C11.2908 9.02734 12.1618 10.328 13.443 10.328V7.32797C14.2971 7.32797 14.8778 8.19506 14.5526 8.98487L11.7786 7.84262ZM15.9071 2.16797C15.0529 2.16797 14.4722 1.30088 14.7975 0.511069L17.5715 1.65332C18.0593 0.468605 17.1883 -0.832031 15.9071 -0.832031V2.16797ZM7.48098 -0.832031C6.62295 -0.832031 5.88421 -0.2264 5.71594 0.614961L8.65768 1.20331C8.5455 1.76421 8.053 2.16797 7.48098 2.16797V-0.832031Z" fill="white" mask="url(#path-1-inside-1_2131_2760)"/>
<path d="M2.5 20.1417L20.6417 1.99999" stroke="white" stroke-width="2" stroke-linecap="round"/>
</svg>
