<svg width="24" height="24" viewBox="0 0 24 24" fill="none" xmlns="http://www.w3.org/2000/svg">
<mask id="path-1-inside-1_71_8244" fill="white">
<path d="M15.9071 0.667969H7.48104C7.33804 0.667969 7.21491 0.768907 7.18687 0.909134L4.90687 12.3091C4.86974 12.4948 5.01173 12.668 5.20104 12.668H9.68825C9.89603 12.668 10.0409 12.8741 9.97052 13.0696L6.42129 22.9286C6.30601 23.2488 6.72858 23.4832 6.9392 23.2158L17.8925 9.31363C18.0475 9.11685 17.9073 8.82797 17.6568 8.82797H13.4431C13.2295 8.82797 13.0844 8.6112 13.1657 8.41374L16.1845 1.08219C16.2658 0.884742 16.1207 0.667969 15.9071 0.667969Z"/>
</mask>
<path d="M16.1845 1.08219L17.5716 1.65332L17.5716 1.65332L16.1845 1.08219ZM13.1657 8.41374L11.7786 7.84262L13.1657 8.41374ZM17.8925 9.31363L16.7142 8.38532L16.7142 8.38532L17.8925 9.31363ZM6.9392 23.2158L8.11744 24.1442L8.11744 24.1442L6.9392 23.2158ZM6.42129 22.9286L7.83262 23.4366H7.83262L6.42129 22.9286ZM9.97052 13.0696L11.3818 13.5777L11.3819 13.5777L9.97052 13.0696ZM4.90687 12.3091L6.37774 12.6033L4.90687 12.3091ZM7.18687 0.909134L8.65774 1.20331L8.65774 1.20331L7.18687 0.909134ZM7.48104 2.16797H15.9071V-0.832031H7.48104V2.16797ZM14.7975 0.511069L11.7786 7.84262L14.5527 8.98487L17.5716 1.65332L14.7975 0.511069ZM13.4431 10.328H17.6568V7.32797H13.4431V10.328ZM16.7142 8.38532L5.76096 22.2875L8.11744 24.1442L19.0707 10.2419L16.7142 8.38532ZM7.83262 23.4366L11.3818 13.5777L8.55919 12.5615L5.00995 22.4205L7.83262 23.4366ZM9.68825 11.168H5.20104V14.168H9.68825V11.168ZM6.37774 12.6033L8.65774 1.20331L5.716 0.61496L3.436 12.015L6.37774 12.6033ZM5.20104 11.168C5.9583 11.168 6.52625 11.8608 6.37774 12.6033L3.436 12.015C3.21323 13.1288 4.06516 14.168 5.20104 14.168V11.168ZM11.3819 13.5777C11.8041 12.4047 10.9349 11.168 9.68825 11.168V14.168C8.85713 14.168 8.27767 13.3435 8.55919 12.5615L11.3819 13.5777ZM5.76096 22.2875C6.60341 21.2183 8.29372 22.1558 7.83262 23.4366L5.00995 22.4205C4.3183 24.3417 6.85376 25.748 8.11744 24.1442L5.76096 22.2875ZM17.6568 10.328C16.6547 10.328 16.0941 9.17243 16.7142 8.38532L19.0707 10.2419C20.0009 9.06127 19.1599 7.32797 17.6568 7.32797V10.328ZM11.7786 7.84262C11.2908 9.02734 12.1619 10.328 13.4431 10.328V7.32797C14.2972 7.32797 14.8779 8.19506 14.5527 8.98487L11.7786 7.84262ZM15.9071 2.16797C15.053 2.16797 14.4723 1.30088 14.7975 0.511069L17.5716 1.65332C18.0594 0.468605 17.1883 -0.832031 15.9071 -0.832031V2.16797ZM7.48104 -0.832031C6.62301 -0.832031 5.88427 -0.2264 5.716 0.614961L8.65774 1.20331C8.54556 1.76421 8.05306 2.16797 7.48104 2.16797V-0.832031Z" fill="white" mask="url(#path-1-inside-1_71_8244)"/>
<path d="M2.5 20.1418L20.6417 2.00011" stroke="white" stroke-width="2" stroke-linecap="round"/>
</svg>
